<?xml version="1.0" standalone="no"?>
<!DOCTYPE svg PUBLIC "-//W3C//DTD SVG 20010904//EN"
 "http://www.w3.org/TR/2001/REC-SVG-20010904/DTD/svg10.dtd">
<svg version="1.0" xmlns="http://www.w3.org/2000/svg"
 width="700.000000pt" height="700.000000pt" viewBox="0 0 700.000000 700.000000"
 preserveAspectRatio="xMidYMid meet">
<metadata>
Created by potrace 1.11, written by Peter Selinger 2001-2013
</metadata>
<g transform="translate(0.000000,700.000000) scale(0.100000,-0.100000)"
fill="#000000" stroke="none">
<path d="M4386 6141 c-24 -26 -19 -60 13 -97 27 -30 30 -39 26 -92 -2 -32 -9
-71 -15 -88 -11 -28 -12 -28 -26 -10 -8 11 -14 23 -14 27 0 14 -87 49 -123 49
-36 0 -37 -1 -31 -27 11 -46 38 -86 81 -119 23 -18 47 -34 53 -36 15 -5 33
-73 34 -128 1 -47 -22 -112 -136 -390 -142 -344 -215 -484 -415 -790 -104
-158 -158 -225 -217 -268 -47 -34 -81 -62 -140 -117 -12 -11 -37 -42 -56 -70
-114 -166 -210 -250 -425 -378 -280 -165 -357 -233 -423 -369 -21 -46 -42 -96
-46 -111 -4 -15 -22 -49 -41 -75 -79 -111 -150 -307 -158 -435 -3 -48 -8 -63
-31 -84 -16 -14 -35 -42 -43 -62 -18 -41 -24 -138 -13 -188 10 -42 -2 -89 -32
-120 -26 -28 -19 -29 31 -4 41 22 101 83 125 130 26 50 43 142 39 216 -3 39
-5 84 -5 100 -2 57 12 134 36 197 l25 63 -5 -80 c-3 -44 -6 -215 -8 -380 -3
-230 -8 -314 -20 -360 -8 -33 -17 -72 -20 -88 -3 -15 -7 -35 -10 -45 -3 -9 -7
-35 -11 -57 -3 -22 -14 -69 -25 -105 -10 -36 -22 -104 -25 -153 -5 -77 -45
-298 -74 -412 -5 -22 -14 -69 -20 -105 -5 -36 -12 -74 -14 -86 -13 -56 66
-132 123 -119 32 7 36 18 20 60 -17 44 -22 118 -11 148 6 16 13 50 16 75 5 42
12 101 20 157 8 55 49 213 66 250 10 23 37 114 59 201 22 87 44 168 49 179 5
11 19 45 30 75 74 197 118 303 157 378 24 47 44 82 45 77 11 -131 -18 -273
-96 -460 -45 -109 -51 -168 -25 -246 32 -95 38 -156 46 -474 2 -121 6 -231 8
-245 2 -14 4 -37 5 -52 2 -39 54 -64 124 -59 23 1 22 22 -4 68 -41 71 -45 115
-44 413 2 330 6 359 77 509 102 217 173 358 218 436 26 44 60 107 75 140 34
72 64 117 73 111 4 -2 40 1 79 8 63 11 72 10 76 -3 8 -36 12 -139 12 -376 0
-238 -5 -331 -23 -420 -9 -45 -8 -84 4 -195 14 -119 8 -427 -9 -481 -8 -26
-12 -62 -10 -80 2 -19 5 -71 6 -116 1 -49 7 -87 15 -95 13 -13 105 -17 135 -5
24 9 21 31 -9 77 -14 21 -26 49 -25 62 0 13 0 43 -1 68 -10 280 9 545 42 585
26 32 47 155 48 280 0 121 5 197 18 269 11 66 94 374 111 414 l18 43 28 -29
c30 -32 32 -42 42 -197 3 -55 8 -122 10 -150 6 -77 17 -309 20 -425 2 -75 9
-122 24 -163 23 -66 37 -218 32 -347 -6 -164 2 -401 14 -421 22 -35 98 -52
153 -34 30 9 28 26 -7 59 -34 32 -46 66 -41 116 5 68 4 136 -4 200 -16 127
-10 869 9 1090 2 25 6 90 9 145 4 56 9 112 11 125 7 34 23 144 29 200 13 111
19 148 37 204 53 165 51 283 -8 406 -51 106 -60 140 -58 211 3 69 26 150 72
248 73 157 170 455 199 609 10 52 66 258 109 402 26 85 48 160 49 165 1 6 21
71 45 145 23 74 44 142 47 151 3 9 13 19 24 22 10 2 27 22 38 44 12 22 27 45
36 52 17 14 27 55 31 122 2 33 11 58 28 81 17 22 24 41 21 55 -4 16 0 22 19
26 38 10 76 45 101 96 31 61 22 83 -32 75 -43 -7 -92 -30 -92 -44 0 -13 -37
-50 -50 -50 -16 0 -12 181 5 210 29 51 14 100 -31 100 -33 0 -47 -25 -48 -84
-1 -41 -7 -60 -29 -89 -15 -20 -35 -37 -42 -37 -8 0 -28 18 -44 41 -25 33 -29
48 -27 85 6 70 -50 117 -88 75z"/>
</g>
</svg>
