<svg xmlns="http://www.w3.org/2000/svg" viewBox="0 0 112.42 112.42"><defs><style>.cls-1{fill:#6fc6cf;}.cls-2{fill:none;}</style></defs><title>アセット 20logo</title><g id="レイヤー_2" data-name="レイヤー 2"><g id="レイヤー_2-2" data-name="レイヤー 2"><path class="cls-1" d="M78.4,17.27c-.13-.33-1.18-.12-1.67.08s-.61.53-.81.89a.77.77,0,0,1-.65.45c-.17,0-.08-.49-.13-1a11,11,0,0,1,0-1.62A2.74,2.74,0,0,1,75.51,15c.2-.49.2-1.26-.41-1.3s-.81.12-1,.65.24.86.12,1.22a3.93,3.93,0,0,1-1.18,1.5c-.28.09-.32,0-.53-.28a4.35,4.35,0,0,1-.69-1,7.8,7.8,0,0,1,0-1.38.88.88,0,0,0-1.22-.73,1,1,0,0,0,0,1.67c.65.4.45,1.17.37,2.07s-.37,1.42-.61,1.18-.24-.81-1.1-1.14-1.7-.32-1.66-.08a3.58,3.58,0,0,0,1,1.95,5.07,5.07,0,0,0,1.26.73,1.29,1.29,0,0,1,.25.69,1,1,0,0,0,.2.65,2.65,2.65,0,0,1,0,1.43A110.68,110.68,0,0,1,64.9,35.72c-2.15,3.78-5.16,8.49-6.38,9.39a19.86,19.86,0,0,0-3.37,3c-.53.74-1.67,3.34-6.63,6.22s-6.65,3.78-8.06,8.36a14.84,14.84,0,0,0-3.11,8.75s-2,.73-1.34,4.27a2,2,0,0,1-1.1,2.44s4-.73,3.66-6.22a8.79,8.79,0,0,1,1-5.71c-.45,2.72-.18,4.42-.27,7.22-.12,3.73,0,4.83-.2,5.6a38.69,38.69,0,0,0-.86,4.07s-.61,2-.69,2.44a22.47,22.47,0,0,1-.24,3A39.36,39.36,0,0,1,36.41,93a4.5,4.5,0,0,0-.28,1.79c0,.45-.41,1.67-.41,1.91a2.1,2.1,0,0,0,.77,1.22c.33.13.33.53,1.3.41s.21-.49.09-1.42-.25-1.26-.09-1.75a4.14,4.14,0,0,0,.37-1.71,28.45,28.45,0,0,1,1.26-6,24.88,24.88,0,0,0,1.3-4.6c.12-.77,1.79-4.87,2.15-6S45,72.34,45,72.34v1.91a17.93,17.93,0,0,1-1.79,6.34,4.63,4.63,0,0,0,.12,4.23,55.94,55.94,0,0,1,.45,8,6.51,6.51,0,0,0,.08,2,11.38,11.38,0,0,0,.2,2,2.91,2.91,0,0,0,2,.52c.36-.16-.25-1.13-.49-1.54a4.72,4.72,0,0,1-.45-2.36,8.14,8.14,0,0,0,0-1.71c0-.81,0-2.39,0-3.57s-.16-3.78.69-5.61,3.5-7.4,4.11-8.21,1.26-2.68,2.11-3.94A11,11,0,0,0,54.82,70s.17,2.24.25,3.58.08,7.72-.33,9,0,3.58.12,4.71a27.21,27.21,0,0,1-.32,6.87,3.32,3.32,0,0,0,0,2.16c0,.49-.24,1.66.08,2.19s2.11.29,2.32.16c.8-.48-1-1.5-.69-2.47a1.91,1.91,0,0,0,0-1.55c-.21-2.07.2-8,.65-8.49a9.26,9.26,0,0,0,.89-3.34A29.73,29.73,0,0,1,58,77.5c.33-1.83,1.63-7.07,2.2-7.8a1.8,1.8,0,0,0,.89,1s.2,2.64.25,3.5.4,5.89.44,8.49c-.24,1.63.65,3,.69,3.62a33.64,33.64,0,0,1,.21,5.57,6.09,6.09,0,0,0,0,2.72,9.3,9.3,0,0,1,0,2.11A1,1,0,0,0,63,97.82a2.57,2.57,0,0,0,2.6.25c.25-.37-.61-.94-.89-1.39a2.27,2.27,0,0,1-.12-1.83,11.6,11.6,0,0,0-.21-3.37,10.47,10.47,0,0,1-.08-1.75c.08-.69,0-2.44,0-3s-.16-3.37-.08-5,.49-10.81.77-11.91.45-4.64.94-5.89a11.06,11.06,0,0,0,.61-4.8c-.25-1.18-1.51-2.84-1.63-4.23a9,9,0,0,1,1.22-5.12,55.56,55.56,0,0,0,3.38-10.61c.73-3.41,3.9-13.21,3.9-13.21.93.09.89-1.25,1.42-1.58s.53-1.75.53-2.28a.91.91,0,0,1,.28-.73.5.5,0,0,0,.25-.52c.12,0,.57-.33.32-.33s-.12-.57-.12-.57a2.76,2.76,0,0,0,1.1-.45A3.37,3.37,0,0,0,78.4,17.27Z"/><rect class="cls-2" width="112.42" height="112.42"/></g></g></svg>