<svg xmlns="http://www.w3.org/2000/svg" viewBox="0 0 87.42 90.46"><defs><style>.cls-1{fill:#6fc6cf;}.cls-2{fill:none;}</style></defs><title>アセット 20kirin</title><g id="レイヤー_2" data-name="レイヤー 2"><g id="レイヤー_2-2" data-name="レイヤー 2"><path class="cls-1" d="M65.9,6.29c-.12-.33-1.18-.12-1.67.08s-.61.53-.81.9a.76.76,0,0,1-.65.44c-.16,0-.08-.49-.12-1a11.09,11.09,0,0,1,0-1.63A2.57,2.57,0,0,1,63,4c.21-.48.21-1.26-.4-1.3s-.82.13-1,.65.24.86.12,1.22a4,4,0,0,1-1.18,1.51c-.28.08-.32,0-.52-.29a4.54,4.54,0,0,1-.7-1,9.06,9.06,0,0,1,0-1.39.87.87,0,0,0-1.21-.73,1,1,0,0,0,0,1.67c.65.41.44,1.18.36,2.07s-.36,1.42-.61,1.18-.24-.81-1.09-1.14-1.71-.32-1.67-.08a3.55,3.55,0,0,0,1,2,5.27,5.27,0,0,0,1.26.73,1.29,1.29,0,0,1,.25.69,1,1,0,0,0,.2.65,2.56,2.56,0,0,1,0,1.43A110,110,0,0,1,52.4,24.74c-2.15,3.78-5.16,8.5-6.38,9.39a20.26,20.26,0,0,0-3.37,3c-.53.73-1.67,3.33-6.62,6.21S29.37,47.09,28,51.67a14.92,14.92,0,0,0-3.11,8.76s-2,.73-1.34,4.26a2,2,0,0,1-1.1,2.44s4-.73,3.66-6.22a8.79,8.79,0,0,1,1-5.71c-.45,2.72-.18,4.42-.27,7.22-.12,3.74,0,4.83-.2,5.61s-.69,2.8-.86,4.06c0,0-.61,2-.69,2.44a22.7,22.7,0,0,1-.24,3,39.82,39.82,0,0,1-.94,4.55,4.46,4.46,0,0,0-.28,1.79c0,.44-.41,1.66-.41,1.91A2.13,2.13,0,0,0,24,87c.32.12.32.52,1.3.4s.2-.49.08-1.42-.25-1.26-.08-1.75a4.33,4.33,0,0,0,.36-1.71,29.08,29.08,0,0,1,1.26-6,24.79,24.79,0,0,0,1.3-4.59c.12-.78,1.79-4.88,2.16-6s2.15-4.51,2.15-4.51v1.91a17.93,17.93,0,0,1-1.79,6.34,4.66,4.66,0,0,0,.12,4.23,55.94,55.94,0,0,1,.45,8,6.51,6.51,0,0,0,.08,2,10.53,10.53,0,0,0,.21,2,2.88,2.88,0,0,0,2,.52c.36-.16-.25-1.13-.49-1.54a4.83,4.83,0,0,1-.45-2.36,7.43,7.43,0,0,0,0-1.7c0-.82,0-2.4,0-3.58s-.16-3.78.69-5.61,3.5-7.4,4.11-8.21,1.26-2.68,2.11-3.94A11.15,11.15,0,0,0,42.33,59s.16,2.24.24,3.58.08,7.72-.32,9,0,3.58.12,4.72A27.71,27.71,0,0,1,42,83.19a3.29,3.29,0,0,0,0,2.15c0,.49-.24,1.67.08,2.19s2.12.29,2.32.17c.8-.49-1-1.51-.69-2.48a1.91,1.91,0,0,0,0-1.55c-.21-2.07.2-8,.65-8.49a9.06,9.06,0,0,0,.89-3.33,29.14,29.14,0,0,1,.21-5.33c.32-1.83,1.62-7.07,2.19-7.8a1.84,1.84,0,0,0,.9,1s.2,2.65.24,3.5.4,5.89.45,8.49c-.25,1.63.65,3,.69,3.62a33.77,33.77,0,0,1,.2,5.57,6.24,6.24,0,0,0,0,2.72,9.3,9.3,0,0,1,0,2.11,1.05,1.05,0,0,0,.29,1.14,2.57,2.57,0,0,0,2.6.25c.24-.37-.61-.94-.9-1.39a2.33,2.33,0,0,1-.12-1.82,12,12,0,0,0-.2-3.38,9.43,9.43,0,0,1-.08-1.75c.08-.69,0-2.43,0-3s-.17-3.38-.09-5,.49-10.81.78-11.91.44-4.63.93-5.89a10.91,10.91,0,0,0,.61-4.8c-.24-1.18-1.5-2.84-1.62-4.23a8.89,8.89,0,0,1,1.22-5.12A55.71,55.71,0,0,0,57,28.2c.73-3.42,3.9-13.21,3.9-13.21.93.08.89-1.26,1.42-1.59s.53-1.75.53-2.27a.91.91,0,0,1,.29-.74.51.51,0,0,0,.24-.52c.12,0,.57-.33.32-.33S63.62,9,63.62,9a2.76,2.76,0,0,0,1.1-.45A3.35,3.35,0,0,0,65.9,6.29Z"/><rect class="cls-2" width="87.42" height="90.46"/></g></g></svg>